<svg width="1589" height="278" viewBox="0 0 1589 278" fill="none" xmlns="http://www.w3.org/2000/svg">
<g clip-path="url(#clip0_102_36)">
<path d="M255.451 154C255.451 85.5167 198.266 30 127.725 30C57.1846 30 0 85.5167 0 154C0 222.483 57.1846 278 127.725 278C198.266 278 255.451 222.483 255.451 154Z" fill="url(#paint0_linear_102_36)"/>
<path d="M69.1382 159.293L156.201 75.3502C157.829 73.782 160.446 75.6904 159.347 77.644L126.943 135.304C126.22 136.589 127.179 138.158 128.688 138.158H184.688C186.492 138.158 187.363 140.303 186.044 141.499L87.9115 230.414C86.1519 232.008 83.533 229.762 84.9456 227.87L131.399 165.655C132.352 164.379 131.413 162.592 129.79 162.592H70.539C68.7647 162.592 67.8792 160.507 69.1382 159.293Z" fill="white"/>
<path d="M367.092 122.695C387.724 122.695 396.925 136.078 399.992 148.067L428.988 137.472C423.411 115.725 403.337 92.8629 366.814 92.8629C327.781 92.8629 297.391 122.974 297.391 164.795C297.391 206.059 327.781 237.007 367.65 237.007C403.337 237.007 423.69 213.865 430.103 192.676L401.664 182.36C398.598 192.676 388.839 207.453 367.65 207.453C347.297 207.453 329.732 192.118 329.732 164.795C329.732 137.472 347.297 122.695 367.092 122.695Z" fill="white"/>
<path d="M480.014 153.087C480.572 135.801 490.33 122.419 508.174 122.419C528.527 122.419 536.055 135.801 536.055 152.53V232.826H568.396V146.954C568.396 117.121 552.225 93.1438 518.769 93.1438C504.549 93.1438 489.215 98.1623 480.014 110.151V30.9698H447.673V232.826H480.014V153.087Z" fill="white"/>
<path d="M588.252 196.021C588.252 217.489 605.817 237.006 634.256 237.006C656.281 237.006 669.664 225.853 676.077 215.537C676.077 226.411 677.192 231.987 677.471 232.823H707.582C707.303 231.429 705.909 223.344 705.909 211.076V143.605C705.909 116.561 690.017 92.8619 648.196 92.8619C614.739 92.8619 593.55 113.773 591.04 137.192L620.594 143.884C621.988 130.222 631.467 119.349 648.475 119.349C666.318 119.349 674.125 128.549 674.125 139.98C674.125 144.72 671.895 148.623 664.088 149.739L629.237 155.036C606.096 158.382 588.252 171.765 588.252 196.021ZM640.389 211.634C627.564 211.634 620.594 203.27 620.594 194.069C620.594 182.917 628.679 177.341 638.716 175.668L674.125 170.37V176.504C674.125 202.991 658.512 211.634 640.389 211.634Z" fill="white"/>
<path d="M860.99 97.0471H818.054L765.917 151.972V30.9698H733.854V232.826H765.917V194.908L782.645 177.344L822.515 232.826H862.106L805.229 154.481L860.99 97.0471Z" fill="white"/>
<path d="M953.819 96.2038C952.425 95.9249 949.079 95.3673 945.176 95.3673C927.332 95.3673 912.276 104.011 905.863 118.788V97.0402H874.357V232.822H906.7V168.138C906.7 142.766 918.131 128.267 943.224 128.267C946.57 128.267 950.195 128.546 953.819 129.104V96.2038Z" fill="white"/>
<path d="M961.57 196.021C961.57 217.489 979.135 237.006 1007.57 237.006C1029.6 237.006 1042.98 225.853 1049.39 215.537C1049.39 226.411 1050.51 231.987 1050.79 232.823H1080.9C1080.62 231.429 1079.23 223.344 1079.23 211.076V143.605C1079.23 116.561 1063.34 92.8619 1021.51 92.8619C988.057 92.8619 966.868 113.773 964.359 137.192L993.912 143.884C995.306 130.222 1004.79 119.349 1021.79 119.349C1039.64 119.349 1047.44 128.549 1047.44 139.98C1047.44 144.72 1045.21 148.623 1037.41 149.739L1002.56 155.036C979.414 158.382 961.57 171.765 961.57 196.021ZM1013.71 211.634C1000.88 211.634 993.912 203.27 993.912 194.069C993.912 182.917 1002 177.341 1012.03 175.668L1047.44 170.37V176.504C1047.44 202.991 1031.83 211.634 1013.71 211.634Z" fill="white"/>
<path d="M1183.23 234.868C1173.63 234.868 1165.07 232.416 1157.53 227.514C1150.05 222.559 1144.16 215.514 1139.88 206.379C1135.65 197.193 1133.53 186.174 1133.53 173.323C1133.53 160.472 1135.67 149.479 1139.96 140.344C1144.29 131.21 1150.23 124.216 1157.76 119.365C1165.3 114.514 1173.84 112.088 1183.39 112.088C1190.77 112.088 1196.7 113.327 1201.19 115.804C1205.73 118.23 1209.24 121.068 1211.72 124.32C1214.25 127.571 1216.21 130.435 1217.6 132.913H1219V74H1242.15V232.545H1219.54V214.043H1217.6C1216.21 216.572 1214.2 219.462 1211.57 222.714C1208.99 225.965 1205.42 228.804 1200.88 231.229C1196.34 233.655 1190.46 234.868 1183.23 234.868ZM1188.34 215.127C1195 215.127 1200.63 213.372 1205.22 209.863C1209.86 206.302 1213.37 201.373 1215.75 195.077C1218.17 188.78 1219.39 181.452 1219.39 173.091C1219.39 164.833 1218.2 157.608 1215.82 151.415C1213.45 145.222 1209.97 140.396 1205.37 136.938C1200.78 133.48 1195.1 131.751 1188.34 131.751C1181.37 131.751 1175.57 133.558 1170.92 137.17C1166.28 140.783 1162.77 145.712 1160.4 151.957C1158.07 158.201 1156.91 165.246 1156.91 173.091C1156.91 181.039 1158.1 188.187 1160.47 194.535C1162.85 200.883 1166.36 205.915 1171 209.631C1175.7 213.295 1181.48 215.127 1188.34 215.127Z" fill="white" fill-opacity="0.5"/>
<path d="M1314.37 234.945C1303.22 234.945 1293.49 232.391 1285.18 227.281C1276.87 222.172 1270.42 215.024 1265.83 205.837C1261.24 196.651 1258.94 185.916 1258.94 173.633C1258.94 161.298 1261.24 150.512 1265.83 141.273C1270.42 132.035 1276.87 124.862 1285.18 119.752C1293.49 114.643 1303.22 112.088 1314.37 112.088C1325.52 112.088 1335.25 114.643 1343.55 119.752C1351.86 124.862 1358.32 132.035 1362.91 141.273C1367.5 150.512 1369.8 161.298 1369.8 173.633C1369.8 185.916 1367.5 196.651 1362.91 205.837C1358.32 215.024 1351.86 222.172 1343.55 227.281C1335.25 232.391 1325.52 234.945 1314.37 234.945ZM1314.45 215.514C1321.67 215.514 1327.66 213.605 1332.41 209.786C1337.16 205.966 1340.66 200.883 1342.94 194.535C1345.26 188.187 1346.42 181.194 1346.42 173.555C1346.42 165.969 1345.26 159.001 1342.94 152.653C1340.66 146.254 1337.16 141.119 1332.41 137.248C1327.66 133.377 1321.67 131.442 1314.45 131.442C1307.17 131.442 1301.13 133.377 1296.33 137.248C1291.58 141.119 1288.05 146.254 1285.73 152.653C1283.45 159.001 1282.32 165.969 1282.32 173.555C1282.32 181.194 1283.45 188.187 1285.73 194.535C1288.05 200.883 1291.58 205.966 1296.33 209.786C1301.13 213.605 1307.17 215.514 1314.45 215.514Z" fill="white" fill-opacity="0.5"/>
<path d="M1434.82 234.945C1423.31 234.945 1413.4 232.339 1405.1 227.126C1396.84 221.862 1390.49 214.611 1386.05 205.373C1381.61 196.135 1379.39 185.555 1379.39 173.633C1379.39 161.556 1381.66 150.899 1386.21 141.661C1390.75 132.371 1397.15 125.12 1405.41 119.907C1413.66 114.694 1423.39 112.088 1434.59 112.088C1443.62 112.088 1451.67 113.765 1458.74 117.12C1465.81 120.423 1471.52 125.068 1475.85 131.055C1480.24 137.041 1482.85 144.035 1483.67 152.034H1461.14C1459.91 146.46 1457.07 141.661 1452.63 137.635C1448.24 133.609 1442.36 131.597 1434.98 131.597C1428.53 131.597 1422.88 133.3 1418.02 136.706C1413.22 140.061 1409.48 144.86 1406.8 151.105C1404.11 157.298 1402.77 164.627 1402.77 173.091C1402.77 181.761 1404.09 189.245 1406.72 195.541C1409.35 201.838 1413.07 206.715 1417.87 210.173C1422.72 213.63 1428.42 215.359 1434.98 215.359C1439.36 215.359 1443.34 214.559 1446.9 212.96C1450.51 211.308 1453.53 208.96 1455.96 205.915C1458.43 202.87 1460.16 199.205 1461.14 194.922H1483.67C1482.85 202.612 1480.34 209.476 1476.16 215.514C1471.98 221.553 1466.38 226.301 1459.36 229.759C1452.4 233.216 1444.22 234.945 1434.82 234.945Z" fill="white" fill-opacity="0.5"/>
<path d="M1586.63 142.667L1565.65 146.383C1564.77 143.699 1563.38 141.144 1561.47 138.719C1559.61 136.293 1557.08 134.306 1553.88 132.758C1550.68 131.21 1546.68 130.435 1541.88 130.435C1535.33 130.435 1529.86 131.906 1525.47 134.848C1521.08 137.738 1518.89 141.48 1518.89 146.073C1518.89 150.047 1520.36 153.247 1523.3 155.673C1526.25 158.098 1530.99 160.085 1537.55 161.634L1556.44 165.969C1567.38 168.498 1575.53 172.394 1580.9 177.658C1586.27 182.923 1588.95 189.761 1588.95 198.173C1588.95 205.295 1586.89 211.643 1582.76 217.217C1578.68 222.74 1572.98 227.075 1565.65 230.223C1558.37 233.371 1549.93 234.945 1540.34 234.945C1527.02 234.945 1516.16 232.107 1507.74 226.43C1499.33 220.701 1494.17 212.572 1492.26 202.044L1514.63 198.638C1516.03 204.47 1518.89 208.882 1523.23 211.876C1527.56 214.817 1533.21 216.288 1540.18 216.288C1547.77 216.288 1553.83 214.714 1558.37 211.566C1562.91 208.366 1565.19 204.47 1565.19 199.876C1565.19 196.161 1563.79 193.038 1561 190.509C1558.27 187.98 1554.06 186.071 1548.39 184.781L1528.26 180.368C1517.16 177.839 1508.96 173.813 1503.64 168.291C1498.38 162.769 1495.74 155.776 1495.74 147.312C1495.74 140.293 1497.71 134.151 1501.63 128.887C1505.55 123.623 1510.97 119.52 1517.88 116.578C1524.8 113.585 1532.72 112.088 1541.65 112.088C1554.5 112.088 1564.62 114.875 1572 120.449C1579.38 125.971 1584.26 133.377 1586.63 142.667Z" fill="white" fill-opacity="0.5"/>
</g>
<defs>
<linearGradient id="paint0_linear_102_36" x1="127.725" y1="30" x2="127.725" y2="278" gradientUnits="userSpaceOnUse">
<stop stop-color="#7BCBD4"/>
<stop offset="1" stop-color="#29C6B7"/>
</linearGradient>
<clipPath id="clip0_102_36">
<rect width="1589" height="278" fill="white"/>
</clipPath>
</defs>
</svg>
