<svg width="1589" height="279" viewBox="0 0 1589 279" fill="none" xmlns="http://www.w3.org/2000/svg">
<g clip-path="url(#clip0_102_51)">
<path d="M255.451 155C255.451 86.5167 198.266 31 127.725 31C57.1846 31 0 86.5167 0 155C0 223.483 57.1846 279 127.725 279C198.266 279 255.451 223.483 255.451 155Z" fill="url(#paint0_linear_102_51)"/>
<path d="M69.1382 160.293L156.201 76.3502C157.829 74.782 160.446 76.6904 159.347 78.644L126.943 136.304C126.22 137.589 127.179 139.158 128.688 139.158H184.688C186.492 139.158 187.363 141.303 186.044 142.499L87.9115 231.414C86.1519 233.008 83.533 230.762 84.9456 228.87L131.399 166.655C132.352 165.379 131.413 163.592 129.79 163.592H70.539C68.7647 163.592 67.8792 161.507 69.1382 160.293Z" fill="white"/>
<path d="M367.092 123.695C387.724 123.695 396.925 137.078 399.992 149.067L428.988 138.472C423.411 116.725 403.337 93.8629 366.814 93.8629C327.781 93.8629 297.391 123.974 297.391 165.795C297.391 207.059 327.781 238.007 367.65 238.007C403.337 238.007 423.69 214.865 430.103 193.676L401.664 183.36C398.598 193.676 388.839 208.453 367.65 208.453C347.297 208.453 329.732 193.118 329.732 165.795C329.732 138.472 347.297 123.695 367.092 123.695Z" fill="#2F3747"/>
<path d="M480.014 154.087C480.572 136.801 490.33 123.419 508.174 123.419C528.527 123.419 536.055 136.801 536.055 153.53V233.826H568.396V147.954C568.396 118.121 552.225 94.1438 518.769 94.1438C504.549 94.1438 489.215 99.1623 480.014 111.151V31.9698H447.673V233.826H480.014V154.087Z" fill="#2F3747"/>
<path d="M588.252 197.021C588.252 218.489 605.817 238.006 634.256 238.006C656.281 238.006 669.664 226.853 676.077 216.537C676.077 227.411 677.192 232.987 677.471 233.823H707.582C707.303 232.429 705.909 224.344 705.909 212.076V144.605C705.909 117.561 690.017 93.8619 648.196 93.8619C614.739 93.8619 593.55 114.773 591.04 138.192L620.594 144.884C621.988 131.222 631.467 120.349 648.475 120.349C666.318 120.349 674.125 129.549 674.125 140.98C674.125 145.72 671.895 149.623 664.088 150.739L629.237 156.036C606.096 159.382 588.252 172.765 588.252 197.021ZM640.389 212.634C627.564 212.634 620.594 204.27 620.594 195.069C620.594 183.917 628.679 178.341 638.716 176.668L674.125 171.37V177.504C674.125 203.991 658.512 212.634 640.389 212.634Z" fill="#2F3747"/>
<path d="M860.99 98.0471H818.054L765.917 152.972V31.9698H733.854V233.826H765.917V195.908L782.645 178.344L822.515 233.826H862.106L805.229 155.481L860.99 98.0471Z" fill="#2F3747"/>
<path d="M953.819 97.2038C952.425 96.9249 949.079 96.3673 945.176 96.3673C927.332 96.3673 912.276 105.011 905.863 119.788V98.0402H874.357V233.822H906.7V169.138C906.7 143.766 918.131 129.267 943.224 129.267C946.57 129.267 950.195 129.546 953.819 130.104V97.2038Z" fill="#2F3747"/>
<path d="M961.57 197.021C961.57 218.489 979.135 238.006 1007.57 238.006C1029.6 238.006 1042.98 226.853 1049.39 216.537C1049.39 227.411 1050.51 232.987 1050.79 233.823H1080.9C1080.62 232.429 1079.23 224.344 1079.23 212.076V144.605C1079.23 117.561 1063.34 93.8619 1021.51 93.8619C988.057 93.8619 966.868 114.773 964.359 138.192L993.912 144.884C995.306 131.222 1004.79 120.349 1021.79 120.349C1039.64 120.349 1047.44 129.549 1047.44 140.98C1047.44 145.72 1045.21 149.623 1037.41 150.739L1002.56 156.036C979.414 159.382 961.57 172.765 961.57 197.021ZM1013.71 212.634C1000.88 212.634 993.912 204.27 993.912 195.069C993.912 183.917 1002 178.341 1012.03 176.668L1047.44 171.37V177.504C1047.44 203.991 1031.83 212.634 1013.71 212.634Z" fill="#2F3747"/>
<path d="M1183.23 235.868C1173.63 235.868 1165.07 233.416 1157.53 228.514C1150.05 223.559 1144.16 216.514 1139.88 207.379C1135.65 198.193 1133.53 187.174 1133.53 174.323C1133.53 161.472 1135.67 150.479 1139.96 141.344C1144.29 132.21 1150.23 125.216 1157.76 120.365C1165.3 115.514 1173.84 113.088 1183.39 113.088C1190.77 113.088 1196.7 114.327 1201.19 116.804C1205.73 119.23 1209.24 122.068 1211.72 125.32C1214.25 128.571 1216.21 131.435 1217.6 133.913H1219V75H1242.15V233.545H1219.54V215.043H1217.6C1216.21 217.572 1214.2 220.462 1211.57 223.714C1208.99 226.965 1205.42 229.804 1200.88 232.229C1196.34 234.655 1190.46 235.868 1183.23 235.868ZM1188.34 216.127C1195 216.127 1200.63 214.372 1205.22 210.863C1209.86 207.302 1213.37 202.373 1215.75 196.077C1218.17 189.78 1219.39 182.452 1219.39 174.091C1219.39 165.833 1218.2 158.608 1215.82 152.415C1213.45 146.222 1209.97 141.396 1205.37 137.938C1200.78 134.48 1195.1 132.751 1188.34 132.751C1181.37 132.751 1175.57 134.558 1170.92 138.17C1166.28 141.783 1162.77 146.712 1160.4 152.957C1158.07 159.201 1156.91 166.246 1156.91 174.091C1156.91 182.039 1158.1 189.187 1160.47 195.535C1162.85 201.883 1166.36 206.915 1171 210.631C1175.7 214.295 1181.48 216.127 1188.34 216.127Z" fill="#2F3747" fill-opacity="0.5"/>
<path d="M1314.37 235.945C1303.22 235.945 1293.49 233.391 1285.18 228.281C1276.87 223.172 1270.42 216.024 1265.83 206.837C1261.24 197.651 1258.94 186.916 1258.94 174.633C1258.94 162.298 1261.24 151.512 1265.83 142.273C1270.42 133.035 1276.87 125.862 1285.18 120.752C1293.49 115.643 1303.22 113.088 1314.37 113.088C1325.52 113.088 1335.25 115.643 1343.55 120.752C1351.86 125.862 1358.32 133.035 1362.91 142.273C1367.5 151.512 1369.8 162.298 1369.8 174.633C1369.8 186.916 1367.5 197.651 1362.91 206.837C1358.32 216.024 1351.86 223.172 1343.55 228.281C1335.25 233.391 1325.52 235.945 1314.37 235.945ZM1314.45 216.514C1321.67 216.514 1327.66 214.605 1332.41 210.786C1337.16 206.966 1340.66 201.883 1342.94 195.535C1345.26 189.187 1346.42 182.194 1346.42 174.555C1346.42 166.969 1345.26 160.001 1342.94 153.653C1340.66 147.254 1337.16 142.119 1332.41 138.248C1327.66 134.377 1321.67 132.442 1314.45 132.442C1307.17 132.442 1301.13 134.377 1296.33 138.248C1291.58 142.119 1288.05 147.254 1285.73 153.653C1283.45 160.001 1282.32 166.969 1282.32 174.555C1282.32 182.194 1283.45 189.187 1285.73 195.535C1288.05 201.883 1291.58 206.966 1296.33 210.786C1301.13 214.605 1307.17 216.514 1314.45 216.514Z" fill="#2F3747" fill-opacity="0.5"/>
<path d="M1434.82 235.945C1423.31 235.945 1413.4 233.339 1405.1 228.126C1396.84 222.862 1390.49 215.611 1386.05 206.373C1381.61 197.135 1379.39 186.555 1379.39 174.633C1379.39 162.556 1381.66 151.899 1386.21 142.661C1390.75 133.371 1397.15 126.12 1405.41 120.907C1413.66 115.694 1423.39 113.088 1434.59 113.088C1443.62 113.088 1451.67 114.765 1458.74 118.12C1465.81 121.423 1471.52 126.068 1475.85 132.055C1480.24 138.041 1482.85 145.035 1483.67 153.034H1461.14C1459.91 147.46 1457.07 142.661 1452.63 138.635C1448.24 134.609 1442.36 132.597 1434.98 132.597C1428.53 132.597 1422.88 134.3 1418.02 137.706C1413.22 141.061 1409.48 145.86 1406.8 152.105C1404.11 158.298 1402.77 165.627 1402.77 174.091C1402.77 182.761 1404.09 190.245 1406.72 196.541C1409.35 202.838 1413.07 207.715 1417.87 211.173C1422.72 214.63 1428.42 216.359 1434.98 216.359C1439.36 216.359 1443.34 215.559 1446.9 213.96C1450.51 212.308 1453.53 209.96 1455.96 206.915C1458.43 203.87 1460.16 200.205 1461.14 195.922H1483.67C1482.85 203.612 1480.34 210.476 1476.16 216.514C1471.98 222.553 1466.38 227.301 1459.36 230.759C1452.4 234.216 1444.22 235.945 1434.82 235.945Z" fill="#2F3747" fill-opacity="0.5"/>
<path d="M1586.63 143.667L1565.65 147.383C1564.77 144.699 1563.38 142.144 1561.47 139.719C1559.61 137.293 1557.08 135.306 1553.88 133.758C1550.68 132.21 1546.68 131.435 1541.88 131.435C1535.33 131.435 1529.86 132.906 1525.47 135.848C1521.08 138.738 1518.89 142.48 1518.89 147.073C1518.89 151.047 1520.36 154.247 1523.3 156.673C1526.25 159.098 1530.99 161.085 1537.55 162.634L1556.44 166.969C1567.38 169.498 1575.53 173.394 1580.9 178.658C1586.27 183.923 1588.95 190.761 1588.95 199.173C1588.95 206.295 1586.89 212.643 1582.76 218.217C1578.68 223.74 1572.98 228.075 1565.65 231.223C1558.37 234.371 1549.93 235.945 1540.34 235.945C1527.02 235.945 1516.16 233.107 1507.74 227.43C1499.33 221.701 1494.17 213.572 1492.26 203.044L1514.63 199.638C1516.03 205.47 1518.89 209.882 1523.23 212.876C1527.56 215.817 1533.21 217.288 1540.18 217.288C1547.77 217.288 1553.83 215.714 1558.37 212.566C1562.91 209.366 1565.19 205.47 1565.19 200.876C1565.19 197.161 1563.79 194.038 1561 191.509C1558.27 188.98 1554.06 187.071 1548.39 185.781L1528.26 181.368C1517.16 178.839 1508.96 174.813 1503.64 169.291C1498.38 163.769 1495.74 156.776 1495.74 148.312C1495.74 141.293 1497.71 135.151 1501.63 129.887C1505.55 124.623 1510.97 120.52 1517.88 117.578C1524.8 114.585 1532.72 113.088 1541.65 113.088C1554.5 113.088 1564.62 115.875 1572 121.449C1579.38 126.971 1584.26 134.377 1586.63 143.667Z" fill="#2F3747" fill-opacity="0.5"/>
</g>
<defs>
<linearGradient id="paint0_linear_102_51" x1="127.725" y1="31" x2="127.725" y2="279" gradientUnits="userSpaceOnUse">
<stop stop-color="#7BCBD4"/>
<stop offset="1" stop-color="#29C6B7"/>
</linearGradient>
<clipPath id="clip0_102_51">
<rect width="1589" height="279" fill="white"/>
</clipPath>
</defs>
</svg>
